<?xml version="1.0" encoding="UTF-8"?>
<!DOCTYPE svg PUBLIC "-//W3C//DTD SVG 1.1//EN" "http://www.w3.org/Graphics/SVG/1.1/DTD/svg11.dtd">
<svg xmlns="http://www.w3.org/2000/svg" version="1.1" width="800px" height="800px" style="shape-rendering:geometricPrecision; text-rendering:geometricPrecision; image-rendering:optimizeQuality; fill-rule:evenodd; clip-rule:evenodd" xmlns:xlink="http://www.w3.org/1999/xlink">
<g><path style="opacity:0.993" fill="#000000" d="M 799.5,139.5 C 799.5,139.833 799.5,140.167 799.5,140.5C 762.368,177.132 725.368,213.965 688.5,251C 615.501,251.5 542.501,251.667 469.5,251.5C 469.5,294.167 469.5,336.833 469.5,379.5C 559.501,379.333 649.501,379.5 739.5,380C 697.167,423 654.833,466 612.5,509C 577.5,509.333 542.5,509.667 507.5,510C 448.333,562.5 389.167,615 330,667.5C 329.5,577.501 329.333,487.501 329.5,397.5C 293.832,397.667 258.165,397.5 222.5,397C 186.751,356.588 151.751,315.588 117.5,274C 188.166,273.5 258.833,273.333 329.5,273.5C 329.5,266.167 329.5,258.833 329.5,251.5C 253.166,251.667 176.833,251.5 100.5,251C 68.1667,214 35.8333,177 3.5,140C 268.833,139.5 534.166,139.333 799.5,139.5 Z"/></g>
<g><path style="opacity:1" fill="#e33c2f" d="M 47.5,160.5 C 281.333,159.334 515.333,159.167 749.5,160C 725.833,184.333 702.167,208.667 678.5,233C 602.167,233.5 525.834,233.667 449.5,233.5C 449.5,289.5 449.5,345.5 449.5,401.5C 530.834,401.333 612.167,401.5 693.5,402C 664.5,431.667 635.5,461.333 606.5,491C 571.167,491.333 535.833,491.667 500.5,492C 451.281,535.52 401.781,578.687 352,621.5C 351.5,540.167 351.333,458.834 351.5,377.5C 312.165,377.667 272.832,377.5 233.5,377C 209.127,349.629 185.127,321.962 161.5,294C 224.166,293.5 286.832,293.333 349.5,293.5C 349.5,272.833 349.5,252.167 349.5,231.5C 269.499,231.667 189.499,231.5 109.5,231C 88.5959,207.603 67.9293,184.103 47.5,160.5 Z"/></g>
</svg>
