<?xml version="1.0" encoding="UTF-8"?>
<!DOCTYPE svg PUBLIC "-//W3C//DTD SVG 1.1//EN" "http://www.w3.org/Graphics/SVG/1.1/DTD/svg11.dtd">
<svg xmlns="http://www.w3.org/2000/svg" version="1.1" width="400px" height="400px" style="shape-rendering:geometricPrecision; text-rendering:geometricPrecision; image-rendering:optimizeQuality; fill-rule:evenodd; clip-rule:evenodd" xmlns:xlink="http://www.w3.org/1999/xlink">
<g><path style="opacity:0.967" fill="#060606" d="M 174.5,28.5 C 174.427,30.0269 175.094,31.0269 176.5,31.5C 176.5,32.1667 176.833,32.5 177.5,32.5C 178.262,34.2624 179.596,35.2624 181.5,35.5C 183.629,37.9501 186.296,39.6167 189.5,40.5C 190.78,41.9313 192.447,42.5979 194.5,42.5C 198.167,45.1667 201.833,45.1667 205.5,42.5C 210.596,41.454 214.929,39.1207 218.5,35.5C 220.404,35.2624 221.738,34.2624 222.5,32.5C 223.167,32.5 223.5,32.1667 223.5,31.5C 224.906,31.0269 225.573,30.0269 225.5,28.5C 227.887,26.0869 230.054,23.4202 232,20.5C 235.172,13.484 238.838,6.81735 243,0.5C 253.286,4.54701 261.786,10.8803 268.5,19.5C 268.5,20.1667 268.833,20.5 269.5,20.5C 282.488,39.445 288.154,60.445 286.5,83.5C 285.766,84.8775 285.099,86.3775 284.5,88C 285.094,88.4643 285.761,88.631 286.5,88.5C 287.514,89.6737 288.847,90.3404 290.5,90.5C 300.514,95.3369 311.181,98.0035 322.5,98.5C 331.4,100.062 340.4,101.729 349.5,103.5C 347.474,106.518 345.474,109.518 343.5,112.5C 341.457,113.579 340.124,115.246 339.5,117.5C 338.833,117.5 338.5,117.833 338.5,118.5C 337.833,118.5 337.5,118.833 337.5,119.5C 336.833,119.5 336.5,119.833 336.5,120.5C 335.833,120.5 335.5,120.833 335.5,121.5C 334.833,121.5 334.5,121.833 334.5,122.5C 333.833,122.5 333.5,122.833 333.5,123.5C 332.833,123.5 332.5,123.833 332.5,124.5C 331.833,124.5 331.5,124.833 331.5,125.5C 330.833,125.5 330.5,125.833 330.5,126.5C 329.833,126.5 329.5,126.833 329.5,127.5C 328.833,127.5 328.5,127.833 328.5,128.5C 327.508,128.328 326.842,128.662 326.5,129.5C 325.833,129.5 325.5,129.833 325.5,130.5C 324.833,130.5 324.5,130.833 324.5,131.5C 323.833,131.5 323.5,131.833 323.5,132.5C 322.508,132.328 321.842,132.662 321.5,133.5C 320.833,133.5 320.5,133.833 320.5,134.5C 319.833,134.5 319.5,134.833 319.5,135.5C 318.508,135.328 317.842,135.662 317.5,136.5C 316.833,136.5 316.5,136.833 316.5,137.5C 315.167,138.833 315.167,140.167 316.5,141.5C 318.825,161.648 327.158,178.814 341.5,193C 350.762,200.769 360.429,207.936 370.5,214.5C 371.234,215.708 371.567,217.041 371.5,218.5C 370.662,218.842 370.328,219.508 370.5,220.5C 369.833,220.5 369.5,220.833 369.5,221.5C 368.662,221.842 368.328,222.508 368.5,223.5C 367.662,223.842 367.328,224.508 367.5,225.5C 366.833,225.5 366.5,225.833 366.5,226.5C 365.662,226.842 365.328,227.508 365.5,228.5C 364.833,228.5 364.5,228.833 364.5,229.5C 363.662,229.842 363.328,230.508 363.5,231.5C 362.662,231.842 362.328,232.508 362.5,233.5C 361.833,233.5 361.5,233.833 361.5,234.5C 360.662,234.842 360.328,235.508 360.5,236.5C 359.662,236.842 359.328,237.508 359.5,238.5C 358.833,238.5 358.5,238.833 358.5,239.5C 357.662,239.842 357.328,240.508 357.5,241.5C 356.833,241.5 356.5,241.833 356.5,242.5C 355.662,242.842 355.328,243.508 355.5,244.5C 354.833,244.5 354.5,244.833 354.5,245.5C 353.662,245.842 353.328,246.508 353.5,247.5C 352.662,247.842 352.328,248.508 352.5,249.5C 351.833,249.5 351.5,249.833 351.5,250.5C 350.662,250.842 350.328,251.508 350.5,252.5C 349.833,252.5 349.5,252.833 349.5,253.5C 348.662,253.842 348.328,254.508 348.5,255.5C 346.457,256.579 345.124,258.246 344.5,260.5C 343.662,260.842 343.328,261.508 343.5,262.5C 342.833,262.5 342.5,262.833 342.5,263.5C 341.833,263.5 341.5,263.833 341.5,264.5C 340.662,264.842 340.328,265.508 340.5,266.5C 339.833,266.5 339.5,266.833 339.5,267.5C 337.457,268.579 336.124,270.246 335.5,272.5C 333.457,273.579 332.124,275.246 331.5,277.5C 330.833,277.5 330.5,277.833 330.5,278.5C 329.662,278.842 329.328,279.508 329.5,280.5C 328.833,280.5 328.5,280.833 328.5,281.5C 327.833,281.5 327.5,281.833 327.5,282.5C 325.457,283.579 324.124,285.246 323.5,287.5C 322.833,287.5 322.5,287.833 322.5,288.5C 321.833,288.5 321.5,288.833 321.5,289.5C 320.662,289.842 320.328,290.508 320.5,291.5C 319.833,291.5 319.5,291.833 319.5,292.5C 318.833,292.5 318.5,292.833 318.5,293.5C 316.457,294.579 315.124,296.246 314.5,298.5C 313.833,298.5 313.5,298.833 313.5,299.5C 312.833,299.5 312.5,299.833 312.5,300.5C 311.833,300.5 311.5,300.833 311.5,301.5C 310.026,302.436 309.026,303.77 308.5,305.5C 307.833,305.5 307.5,305.833 307.5,306.5C 306.833,306.5 306.5,306.833 306.5,307.5C 305.833,307.5 305.5,307.833 305.5,308.5C 304.833,308.5 304.5,308.833 304.5,309.5C 303.026,310.436 302.026,311.77 301.5,313.5C 300.833,313.5 300.5,313.833 300.5,314.5C 299.833,314.5 299.5,314.833 299.5,315.5C 298.833,315.5 298.5,315.833 298.5,316.5C 297.833,316.5 297.5,316.833 297.5,317.5C 296.833,317.5 296.5,317.833 296.5,318.5C 295.833,318.5 295.5,318.833 295.5,319.5C 294.833,319.5 294.5,319.833 294.5,320.5C 293.833,320.5 293.5,320.833 293.5,321.5C 292.833,321.5 292.5,321.833 292.5,322.5C 291.833,322.5 291.5,322.833 291.5,323.5C 290.833,323.5 290.5,323.833 290.5,324.5C 289.833,324.5 289.5,324.833 289.5,325.5C 288.833,325.5 288.5,325.833 288.5,326.5C 287.833,326.5 287.5,326.833 287.5,327.5C 286.833,327.5 286.5,327.833 286.5,328.5C 285.833,328.5 285.5,328.833 285.5,329.5C 284.833,329.5 284.5,329.833 284.5,330.5C 283.833,330.5 283.5,330.833 283.5,331.5C 282.833,331.5 282.5,331.833 282.5,332.5C 279.891,333.443 277.891,335.11 276.5,337.5C 275.833,337.5 275.5,337.833 275.5,338.5C 274.833,338.5 274.5,338.833 274.5,339.5C 273.833,339.5 273.5,339.833 273.5,340.5C 272.833,340.5 272.5,340.833 272.5,341.5C 271.833,341.5 271.5,341.833 271.5,342.5C 270.833,342.5 270.5,342.833 270.5,343.5C 269.833,343.5 269.5,343.833 269.5,344.5C 267.246,345.124 265.579,346.457 264.5,348.5C 263.833,348.5 263.5,348.833 263.5,349.5C 262.833,349.5 262.5,349.833 262.5,350.5C 261.833,350.5 261.5,350.833 261.5,351.5C 260.833,351.5 260.5,351.833 260.5,352.5C 259.833,352.5 259.5,352.833 259.5,353.5C 257.77,354.026 256.436,355.026 255.5,356.5C 254.833,356.5 254.5,356.833 254.5,357.5C 253.833,357.5 253.5,357.833 253.5,358.5C 252.833,358.5 252.5,358.833 252.5,359.5C 251.833,359.5 251.5,359.833 251.5,360.5C 249.246,361.124 247.579,362.457 246.5,364.5C 245.833,364.5 245.5,364.833 245.5,365.5C 244.833,365.5 244.5,365.833 244.5,366.5C 243.508,366.328 242.842,366.662 242.5,367.5C 241.833,367.5 241.5,367.833 241.5,368.5C 239.246,369.124 237.579,370.457 236.5,372.5C 235.833,372.5 235.5,372.833 235.5,373.5C 234.508,373.328 233.842,373.662 233.5,374.5C 232.833,374.5 232.5,374.833 232.5,375.5C 231.833,375.5 231.5,375.833 231.5,376.5C 230.508,376.328 229.842,376.662 229.5,377.5C 228.833,377.5 228.5,377.833 228.5,378.5C 223.587,381.118 219.254,384.452 215.5,388.5C 214.508,388.328 213.842,388.662 213.5,389.5C 212.833,389.5 212.5,389.833 212.5,390.5C 211.833,390.5 211.5,390.833 211.5,391.5C 210.508,391.328 209.842,391.662 209.5,392.5C 208.833,392.5 208.5,392.833 208.5,393.5C 207.833,393.5 207.5,393.833 207.5,394.5C 206.508,394.328 205.842,394.662 205.5,395.5C 204.833,395.5 204.5,395.833 204.5,396.5C 203.833,396.5 203.5,396.833 203.5,397.5C 202.508,397.328 201.842,397.662 201.5,398.5C 200.5,398.5 199.5,398.5 198.5,398.5C 195.048,395.601 191.382,392.934 187.5,390.5C 187.5,389.833 187.167,389.5 186.5,389.5C 181.804,385.479 176.804,381.812 171.5,378.5C 171.5,377.833 171.167,377.5 170.5,377.5C 162.191,370.864 153.858,364.197 145.5,357.5C 145.5,356.833 145.167,356.5 144.5,356.5C 141.859,354.196 139.192,351.862 136.5,349.5C 136.5,348.833 136.167,348.5 135.5,348.5C 132.192,345.529 128.859,342.529 125.5,339.5C 125.5,338.833 125.167,338.5 124.5,338.5C 124.5,337.833 124.167,337.5 123.5,337.5C 113.833,328.5 104.5,319.167 95.5,309.5C 95.5,308.833 95.1667,308.5 94.5,308.5C 94.5,307.833 94.1667,307.5 93.5,307.5C 91.823,305.46 90.1563,303.46 88.5,301.5C 88.5,300.833 88.1667,300.5 87.5,300.5C 84.8482,296.518 81.8482,292.851 78.5,289.5C 78.5,288.833 78.1667,288.5 77.5,288.5C 66.0313,274.707 55.3646,260.374 45.5,245.5C 45.5,244.833 45.1667,244.5 44.5,244.5C 39.3094,235.29 33.976,226.124 28.5,217C 28.7591,215.739 29.4258,214.739 30.5,214C 48.2938,203.538 62.7938,189.704 74,172.5C 79.1947,162.059 82.6947,151.059 84.5,139.5C 81.8486,135.854 78.5152,132.854 74.5,130.5C 74.5,129.833 74.1667,129.5 73.5,129.5C 71.1918,127.529 68.8585,125.529 66.5,123.5C 66.5,122.833 66.1667,122.5 65.5,122.5C 65.5,121.833 65.1667,121.5 64.5,121.5C 64.5,120.833 64.1667,120.5 63.5,120.5C 58.8075,115.137 54.4741,109.47 50.5,103.5C 63.7571,101.01 77.0905,98.8438 90.5,97C 98.7446,95.4221 106.411,92.5888 113.5,88.5C 114.239,88.631 114.906,88.4643 115.5,88C 114.901,86.3775 114.234,84.8775 113.5,83.5C 111.846,60.445 117.512,39.445 130.5,20.5C 131.167,20.5 131.5,20.1667 131.5,19.5C 138.214,10.8803 146.714,4.54701 157,0.5C 161.162,6.81735 164.828,13.484 168,20.5C 169.946,23.4202 172.113,26.0869 174.5,28.5 Z M 174.5,28.5 C 175.167,28.8333 175.833,29.1667 176.5,29.5C 176.5,30.1667 176.5,30.8333 176.5,31.5C 175.094,31.0269 174.427,30.0269 174.5,28.5 Z M 225.5,28.5 C 225.573,30.0269 224.906,31.0269 223.5,31.5C 223.5,30.8333 223.5,30.1667 223.5,29.5C 224.167,29.1667 224.833,28.8333 225.5,28.5 Z M 177.5,32.5 C 178.167,32.5 178.833,32.5 179.5,32.5C 180.167,33.5 180.833,34.5 181.5,35.5C 179.596,35.2624 178.262,34.2624 177.5,32.5 Z M 220.5,32.5 C 221.167,32.5 221.833,32.5 222.5,32.5C 221.738,34.2624 220.404,35.2624 218.5,35.5C 219.167,34.5 219.833,33.5 220.5,32.5 Z"/></g>
<g><path style="opacity:0.009" fill="#000000" d="M 131.5,19.5 C 130.833,19.5 130.5,19.8333 130.5,20.5C 129.287,19.5029 129.454,18.5029 131,17.5C 131.464,18.0944 131.631,18.7611 131.5,19.5 Z"/></g>
<g><path style="opacity:0.009" fill="#000000" d="M 269.5,20.5 C 268.833,20.5 268.5,20.1667 268.5,19.5C 268.747,17.0248 269.413,17.0248 270.5,19.5C 270.376,20.1067 270.043,20.44 269.5,20.5 Z"/></g>
<g><path style="opacity:1" fill="#fbfbfb" d="M 147.5,25.5 C 152.539,32.8165 158.539,39.4832 165.5,45.5C 156.569,58.2364 155.069,71.9031 161,86.5C 175.373,79.1344 188.373,69.801 200,58.5C 211.627,69.801 224.627,79.1344 239,86.5C 244.905,71.9186 243.405,58.2519 234.5,45.5C 241.58,39.988 247.247,33.3213 251.5,25.5C 261.269,34.7015 267.102,46.0348 269,59.5C 269.734,76.3107 265.734,91.9773 257,106.5C 249.884,116.618 242.384,126.451 234.5,136C 241.45,131.752 247.95,126.585 254,120.5C 260.049,113.452 265.716,106.119 271,98.5C 276.634,101.734 282.468,104.567 288.5,107C 299.139,109.328 309.806,111.328 320.5,113C 315.344,117.414 309.677,121.081 303.5,124C 286.833,130.667 270.167,137.333 253.5,144C 232.692,154.017 214.692,167.35 199.5,184C 183.549,165.39 164.215,151.39 141.5,142C 127.167,136.333 112.833,130.667 98.5,125C 91.3287,121.584 84.6621,117.418 78.5,112.5C 89.2302,110.992 99.8968,109.159 110.5,107C 116.996,104.834 123.163,102.001 129,98.5C 138.735,113.296 150.735,125.963 165,136.5C 165.667,135.833 165.667,135.167 165,134.5C 147.692,117.555 136.358,97.2218 131,73.5C 129.447,54.9893 134.947,38.9893 147.5,25.5 Z M 174.5,28.5 C 175.167,28.8333 175.833,29.1667 176.5,29.5C 176.5,30.1667 176.5,30.8333 176.5,31.5C 175.094,31.0269 174.427,30.0269 174.5,28.5 Z M 225.5,28.5 C 225.573,30.0269 224.906,31.0269 223.5,31.5C 223.5,30.8333 223.5,30.1667 223.5,29.5C 224.167,29.1667 224.833,28.8333 225.5,28.5 Z M 177.5,32.5 C 178.167,32.5 178.833,32.5 179.5,32.5C 180.167,33.5 180.833,34.5 181.5,35.5C 179.596,35.2624 178.262,34.2624 177.5,32.5 Z M 220.5,32.5 C 221.167,32.5 221.833,32.5 222.5,32.5C 221.738,34.2624 220.404,35.2624 218.5,35.5C 219.167,34.5 219.833,33.5 220.5,32.5 Z"/></g>
<g><path style="opacity:0.005" fill="#000000" d="M 176.5,29.5 C 177.833,30.1667 178.833,31.1667 179.5,32.5C 178.833,32.5 178.167,32.5 177.5,32.5C 176.833,32.5 176.5,32.1667 176.5,31.5C 176.5,30.8333 176.5,30.1667 176.5,29.5 Z"/></g>
<g><path style="opacity:0.005" fill="#000000" d="M 223.5,29.5 C 223.5,30.1667 223.5,30.8333 223.5,31.5C 222.833,31.5 222.5,31.8333 222.5,32.5C 221.833,32.5 221.167,32.5 220.5,32.5C 221.167,31.1667 222.167,30.1667 223.5,29.5 Z"/></g>
<g><path style="opacity:0.012" fill="#000000" d="M 189.5,40.5 C 189.897,39.475 190.563,39.3083 191.5,40C 190.906,40.4643 190.239,40.631 189.5,40.5 Z"/></g>
<g><path style="opacity:0.012" fill="#000000" d="M 194.5,41.5 C 193.761,41.631 193.094,41.4643 192.5,41C 193.437,40.3083 194.103,40.475 194.5,41.5 Z"/></g>
<g><path style="opacity:0.012" fill="#000000" d="M 205.5,41.5 C 205.897,40.475 206.563,40.3083 207.5,41C 206.906,41.4643 206.239,41.631 205.5,41.5 Z"/></g>
<g><path style="opacity:0.01" fill="#000000" d="M 194.5,42.5 C 194.5,42.1667 194.5,41.8333 194.5,41.5C 198.5,41.8333 198.5,42.1667 194.5,42.5 Z"/></g>
<g><path style="opacity:0.01" fill="#000000" d="M 205.5,41.5 C 205.5,41.8333 205.5,42.1667 205.5,42.5C 201.5,42.1667 201.5,41.8333 205.5,41.5 Z"/></g>
<g><path style="opacity:0.013" fill="#000000" d="M 198.5,43.5 C 199.251,42.4265 200.251,42.2599 201.5,43C 200.552,43.4828 199.552,43.6495 198.5,43.5 Z"/></g>
<g><path style="opacity:0.01" fill="#000000" d="M 287.5,83.5 C 287.334,76.4921 287.5,69.4921 288,62.5C 288.821,69.6791 288.655,76.6791 287.5,83.5 Z"/></g>
<g><path style="opacity:0.011" fill="#000000" d="M 113.5,83.5 C 113.5,85.1667 113.5,86.8333 113.5,88.5C 112.761,88.631 112.094,88.4643 111.5,88C 112.099,86.3775 112.766,84.8775 113.5,83.5 Z"/></g>
<g><path style="opacity:0.011" fill="#000000" d="M 286.5,83.5 C 286.833,83.5 287.167,83.5 287.5,83.5C 287.286,85.1439 287.62,86.6439 288.5,88C 287.906,88.4643 287.239,88.631 286.5,88.5C 286.5,86.8333 286.5,85.1667 286.5,83.5 Z"/></g>
<g><path style="opacity:0.01" fill="#000000" d="M 290.5,90.5 C 290.897,89.475 291.563,89.3083 292.5,90C 291.906,90.4643 291.239,90.631 290.5,90.5 Z"/></g>
<g><path style="opacity:0.01" fill="#000000" d="M 104.5,91.5 C 104.897,90.475 105.563,90.3083 106.5,91C 105.906,91.4643 105.239,91.631 104.5,91.5 Z"/></g>
<g><path style="opacity:0.01" fill="#000000" d="M 293.5,91.5 C 293.897,90.475 294.563,90.3083 295.5,91C 294.906,91.4643 294.239,91.631 293.5,91.5 Z"/></g>
<g><path style="opacity:0.008" fill="#000000" d="M 322.5,98.5 C 324.628,97.3709 326.961,97.2042 329.5,98C 327.19,98.4966 324.857,98.6633 322.5,98.5 Z"/></g>
<g><path style="opacity:0.01" fill="#000000" d="M 62.5,99.5 C 64.6282,98.3709 66.9615,98.2042 69.5,99C 67.1902,99.4966 64.8568,99.6633 62.5,99.5 Z"/></g>
<g><path style="opacity:0.01" fill="#000000" d="M 337.5,99.5 C 335.143,99.6633 332.81,99.4966 330.5,99C 333.039,98.2042 335.372,98.3709 337.5,99.5 Z"/></g>
<g><path style="opacity:0.008" fill="#000000" d="M 54.5,100.5 C 56.9479,99.5269 59.6146,99.1936 62.5,99.5C 60.0521,100.473 57.3854,100.806 54.5,100.5 Z"/></g>
<g><path style="opacity:0.008" fill="#000000" d="M 337.5,99.5 C 340.385,99.1936 343.052,99.5269 345.5,100.5C 342.615,100.806 339.948,100.473 337.5,99.5 Z"/></g>
<g><path style="opacity:0.012" fill="#000000" d="M 54.5,100.5 C 53.3991,101.598 52.0657,101.765 50.5,101C 51.7932,100.51 53.1266,100.343 54.5,100.5 Z"/></g>
<g><path style="opacity:0.012" fill="#000000" d="M 345.5,100.5 C 346.873,100.343 348.207,100.51 349.5,101C 347.934,101.765 346.601,101.598 345.5,100.5 Z"/></g>
<g><path style="opacity:0.006" fill="#000000" d="M 350.5,102.5 C 351.525,102.897 351.692,103.563 351,104.5C 350.536,103.906 350.369,103.239 350.5,102.5 Z"/></g>
<g><path style="opacity:0.016" fill="#000000" d="M 343.5,112.5 C 344.833,113.167 344.833,113.167 343.5,112.5 Z"/></g>
<g><path style="opacity:0.016" fill="#000000" d="M 339.5,117.5 C 340.833,118.167 340.833,118.167 339.5,117.5 Z"/></g>
<g><path style="opacity:0.016" fill="#000000" d="M 338.5,118.5 C 338.833,118.5 339.167,118.5 339.5,118.5C 339.315,119.17 338.981,119.17 338.5,118.5 Z"/></g>
<g><path style="opacity:0.016" fill="#000000" d="M 337.5,119.5 C 337.833,119.5 338.167,119.5 338.5,119.5C 338.315,120.17 337.981,120.17 337.5,119.5 Z"/></g>
<g><path style="opacity:0.007" fill="#000000" d="M 63.5,120.5 C 64.1667,120.5 64.5,120.833 64.5,121.5C 65.1667,121.5 65.5,121.833 65.5,122.5C 66.1667,122.5 66.5,122.833 66.5,123.5C 64.732,124.507 63.3987,123.841 62.5,121.5C 62.6236,120.893 62.9569,120.56 63.5,120.5 Z"/></g>
<g><path style="opacity:0.007" fill="#000000" d="M 336.5,120.5 C 336.833,120.5 337.167,120.5 337.5,120.5C 337.167,122.833 335.833,124.167 333.5,124.5C 333.5,124.167 333.5,123.833 333.5,123.5C 334.167,123.5 334.5,123.167 334.5,122.5C 335.167,122.5 335.5,122.167 335.5,121.5C 336.167,121.5 336.5,121.167 336.5,120.5 Z"/></g>
<g><path style="opacity:0.012" fill="#000000" d="M 332.5,124.5 C 332.833,124.5 333.167,124.5 333.5,124.5C 333.315,125.17 332.981,125.17 332.5,124.5 Z"/></g>
<g><path style="opacity:0.016" fill="#000000" d="M 331.5,125.5 C 331.833,125.5 332.167,125.5 332.5,125.5C 332.315,126.17 331.981,126.17 331.5,125.5 Z"/></g>
<g><path style="opacity:0.016" fill="#000000" d="M 330.5,126.5 C 330.833,126.5 331.167,126.5 331.5,126.5C 331.315,127.17 330.981,127.17 330.5,126.5 Z"/></g>
<g><path style="opacity:0.016" fill="#000000" d="M 329.5,127.5 C 329.833,127.5 330.167,127.5 330.5,127.5C 330.315,128.17 329.981,128.17 329.5,127.5 Z"/></g>
<g><path style="opacity:0.012" fill="#000000" d="M 328.5,128.5 C 328.833,128.5 329.167,128.5 329.5,128.5C 329.315,129.17 328.981,129.17 328.5,128.5 Z"/></g>
<g><path style="opacity:0.008" fill="#000000" d="M 73.5,129.5 C 74.1667,129.5 74.5,129.833 74.5,130.5C 73.5029,131.713 72.5029,131.546 71.5,130C 72.0944,129.536 72.7611,129.369 73.5,129.5 Z"/></g>
<g><path style="opacity:0.008" fill="#000000" d="M 326.5,129.5 C 327.167,129.5 327.833,129.5 328.5,129.5C 328.027,130.906 327.027,131.573 325.5,131.5C 325.5,131.167 325.5,130.833 325.5,130.5C 326.167,130.5 326.5,130.167 326.5,129.5 Z"/></g>
<g><path style="opacity:0.016" fill="#000000" d="M 324.5,131.5 C 324.833,131.5 325.167,131.5 325.5,131.5C 325.315,132.17 324.981,132.17 324.5,131.5 Z"/></g>
<g><path style="opacity:0.012" fill="#000000" d="M 323.5,132.5 C 323.833,132.5 324.167,132.5 324.5,132.5C 324.315,133.17 323.981,133.17 323.5,132.5 Z"/></g>
<g><path style="opacity:0.008" fill="#000000" d="M 321.5,134.5 C 321.5,134.167 321.5,133.833 321.5,133.5C 322.167,133.5 322.833,133.5 323.5,133.5C 323.158,134.338 322.492,134.672 321.5,134.5 Z"/></g>
<g><path style="opacity:0.016" fill="#000000" d="M 320.5,134.5 C 320.833,134.5 321.167,134.5 321.5,134.5C 321.315,135.17 320.981,135.17 320.5,134.5 Z"/></g>
<g><path style="opacity:1" fill="#fcfcfc" d="M 99.5,134.5 C 105.075,135.358 110.408,137.025 115.5,139.5C 116.18,162.526 117.347,185.526 119,208.5C 127.268,249.208 147.434,282.708 179.5,309C 185.768,313.76 192.434,317.927 199.5,321.5C 221.191,310.314 239.025,294.647 253,274.5C 266.429,256.567 275.429,236.567 280,214.5C 282.406,189.561 283.906,164.561 284.5,139.5C 289.598,137.023 294.931,135.356 300.5,134.5C 301.735,172.324 318.402,200.99 350.5,220.5C 351.583,221.365 351.749,222.365 351,223.5C 330.412,255.796 306.578,285.63 279.5,313C 278.668,313.688 278.002,313.521 277.5,312.5C 271.962,303.126 265.462,294.46 258,286.5C 259.814,291.619 261.481,296.952 263,302.5C 263.667,304.167 263.667,305.833 263,307.5C 250.8,319.368 238.3,330.868 225.5,342C 228.99,344.911 232.656,347.578 236.5,350C 237.451,350.718 237.617,351.551 237,352.5C 228.893,359.947 220.226,366.613 211,372.5C 207.333,370.5 203.667,368.5 200,366.5C 196.435,368.367 192.935,370.367 189.5,372.5C 179.958,366.794 171.125,360.127 163,352.5C 162.333,351.833 162.333,351.167 163,350.5C 166.922,347.789 170.756,344.955 174.5,342C 161.7,330.868 149.2,319.368 137,307.5C 137.866,300.252 139.532,293.252 142,286.5C 134.77,294.63 128.27,303.297 122.5,312.5C 121.998,313.521 121.332,313.688 120.5,313C 93.6261,285.474 69.7928,255.641 49,223.5C 48.2506,222.365 48.4173,221.365 49.5,220.5C 81.6181,200.944 98.2847,172.277 99.5,134.5 Z"/></g>
<g><path style="opacity:0.012" fill="#000000" d="M 319.5,135.5 C 319.833,135.5 320.167,135.5 320.5,135.5C 320.315,136.17 319.981,136.17 319.5,135.5 Z"/></g>
<g><path style="opacity:0.008" fill="#000000" d="M 317.5,137.5 C 317.5,137.167 317.5,136.833 317.5,136.5C 318.167,136.5 318.833,136.5 319.5,136.5C 319.158,137.338 318.492,137.672 317.5,137.5 Z"/></g>
<g><path style="opacity:0.014" fill="#000000" d="M 316.5,137.5 C 316.833,137.5 317.167,137.5 317.5,137.5C 317.5,138.833 317.5,140.167 317.5,141.5C 317.167,141.5 316.833,141.5 316.5,141.5C 316.5,140.167 316.5,138.833 316.5,137.5 Z"/></g>
<g><path style="opacity:0.01" fill="#000000" d="M 81.5,141.5 C 82.5983,142.601 82.765,143.934 82,145.5C 81.51,144.207 81.3433,142.873 81.5,141.5 Z"/></g>
<g><path style="opacity:0.01" fill="#000000" d="M 317.5,141.5 C 318.598,142.601 318.765,143.934 318,145.5C 317.51,144.207 317.343,142.873 317.5,141.5 Z"/></g>
<g><path style="opacity:0.999" fill="#fafafa" d="M 276.5,142.5 C 277.494,152.653 277.828,162.986 277.5,173.5C 277.368,191.857 274.868,209.857 270,227.5C 255.515,233.966 240.348,237.966 224.5,239.5C 224.334,248.173 224.5,256.84 225,265.5C 231.269,259.128 236.436,251.961 240.5,244C 249.257,241.854 257.757,239.021 266,235.5C 256.679,261.28 241.512,283.113 220.5,301C 214.805,304.843 209.138,308.677 203.5,312.5C 202.502,280.338 202.168,248.004 202.5,215.5C 211.104,214.866 219.604,213.533 228,211.5C 228.833,211.833 229.667,212.167 230.5,212.5C 227.378,218.72 224.878,225.053 223,231.5C 228.253,224.668 232.753,217.335 236.5,209.5C 250.504,203.812 257.17,193.478 256.5,178.5C 253.921,179.706 251.421,181.039 249,182.5C 248.833,182.167 248.667,181.833 248.5,181.5C 250.34,176.161 251.84,170.828 253,165.5C 249.841,172.488 246.174,179.154 242,185.5C 237.289,189.88 232.289,193.88 227,197.5C 226.503,200.146 226.336,202.813 226.5,205.5C 219.667,207.665 212.667,208.999 205.5,209.5C 204.5,209.5 203.5,209.5 202.5,209.5C 202.5,203.5 202.5,197.5 202.5,191.5C 222.486,168.168 247.153,151.835 276.5,142.5 Z"/></g>
<g><path style="opacity:0.999" fill="#fbfbfb" d="M 197.5,191.5 C 197.5,197.5 197.5,203.5 197.5,209.5C 196.167,209.5 194.833,209.5 193.5,209.5C 186.796,209.241 180.462,207.574 174.5,204.5C 173.77,201.891 173.27,199.224 173,196.5C 164.904,189.068 156.237,182.401 147,176.5C 144.78,209.996 154.113,239.663 175,265.5C 175.832,256.814 175.665,248.147 174.5,239.5C 168.904,238.027 163.737,235.694 159,232.5C 155.104,222.783 153.271,212.783 153.5,202.5C 167.248,209.937 181.915,214.27 197.5,215.5C 197.833,247.84 197.5,280.174 196.5,312.5C 159.113,287.743 135.613,253.409 126,209.5C 123.777,187.197 123.277,164.863 124.5,142.5C 145.84,149.997 165.173,160.83 182.5,175C 188.076,180.071 193.076,185.571 197.5,191.5 Z"/></g>
<g><path style="opacity:0.982" fill="#858585" d="M 276.5,142.5 C 276.56,141.957 276.893,141.624 277.5,141.5C 278.823,152.326 278.823,162.993 277.5,173.5C 277.828,162.986 277.494,152.653 276.5,142.5 Z"/></g>
<g><path style="opacity:1" fill="#e43921" d="M 249.5,184.5 C 250.649,184.791 251.316,185.624 251.5,187C 250.618,191.596 248.785,195.762 246,199.5C 241.861,202.486 237.361,204.82 232.5,206.5C 230.46,200.968 231.794,196.635 236.5,193.5C 238.656,195.938 240.989,196.105 243.5,194C 243.771,189.616 245.771,186.449 249.5,184.5 Z"/></g>
<g><path style="opacity:0.989" fill="#3f3f3f" d="M 202.5,191.5 C 202.5,197.5 202.5,203.5 202.5,209.5C 203.5,209.5 204.5,209.5 205.5,209.5C 204.432,210.434 203.099,210.768 201.5,210.5C 201.177,203.978 201.51,197.645 202.5,191.5 Z"/></g>
<g><path style="opacity:0.965" fill="#5b5b5b" d="M 197.5,191.5 C 198.49,197.645 198.823,203.978 198.5,210.5C 196.585,210.784 194.919,210.451 193.5,209.5C 194.833,209.5 196.167,209.5 197.5,209.5C 197.5,203.5 197.5,197.5 197.5,191.5 Z"/></g>
<g><path style="opacity:0.016" fill="#000000" d="M 370.5,213.5 C 371.833,214.167 371.833,214.167 370.5,213.5 Z"/></g>
<g><path style="opacity:0.005" fill="#000000" d="M 26.5,215.5 C 27.5735,216.251 27.7401,217.251 27,218.5C 26.5172,217.552 26.3505,216.552 26.5,215.5 Z"/></g>
<g><path style="opacity:0.005" fill="#000000" d="M 372.5,218.5 C 372.351,217.448 372.517,216.448 373,215.5C 373.74,216.749 373.573,217.749 372.5,218.5 Z"/></g>
<g><path style="opacity:0.957" fill="#4b4b4b" d="M 202.5,215.5 C 202.168,248.004 202.502,280.338 203.5,312.5C 203.44,313.043 203.107,313.376 202.5,313.5C 201.17,280.669 201.17,248.002 202.5,215.5 Z"/></g>
<g><path style="opacity:0.01" fill="#000000" d="M 371.5,218.5 C 371.833,218.5 372.167,218.5 372.5,218.5C 372.672,219.492 372.338,220.158 371.5,220.5C 371.5,219.833 371.5,219.167 371.5,218.5 Z"/></g>
<g><path style="opacity:0.012" fill="#000000" d="M 370.5,220.5 C 370.833,220.5 371.167,220.5 371.5,220.5C 371.315,221.17 370.981,221.17 370.5,220.5 Z"/></g>
<g><path style="opacity:0.008" fill="#000000" d="M 369.5,221.5 C 369.833,221.5 370.167,221.5 370.5,221.5C 370.672,222.492 370.338,223.158 369.5,223.5C 369.5,222.833 369.5,222.167 369.5,221.5 Z"/></g>
<g><path style="opacity:0.01" fill="#000000" d="M 368.5,223.5 C 368.833,223.5 369.167,223.5 369.5,223.5C 369.672,224.492 369.338,225.158 368.5,225.5C 368.5,224.833 368.5,224.167 368.5,223.5 Z"/></g>
<g><path style="opacity:0.012" fill="#000000" d="M 367.5,225.5 C 367.833,225.5 368.167,225.5 368.5,225.5C 368.315,226.17 367.981,226.17 367.5,225.5 Z"/></g>
<g><path style="opacity:0.01" fill="#000000" d="M 366.5,226.5 C 366.833,226.5 367.167,226.5 367.5,226.5C 367.672,227.492 367.338,228.158 366.5,228.5C 366.5,227.833 366.5,227.167 366.5,226.5 Z"/></g>
<g><path style="opacity:0.009" fill="#000000" d="M 365.5,228.5 C 365.833,228.5 366.167,228.5 366.5,228.5C 366.573,230.027 365.906,231.027 364.5,231.5C 364.5,230.833 364.5,230.167 364.5,229.5C 365.167,229.5 365.5,229.167 365.5,228.5 Z"/></g>
<g><path style="opacity:0.008" fill="#000000" d="M 363.5,231.5 C 363.833,231.5 364.167,231.5 364.5,231.5C 364.672,232.492 364.338,233.158 363.5,233.5C 363.5,232.833 363.5,232.167 363.5,231.5 Z"/></g>
<g><path style="opacity:0.016" fill="#000000" d="M 362.5,233.5 C 362.833,233.5 363.167,233.5 363.5,233.5C 363.315,234.17 362.981,234.17 362.5,233.5 Z"/></g>
<g><path style="opacity:0.008" fill="#000000" d="M 361.5,234.5 C 361.833,234.5 362.167,234.5 362.5,234.5C 362.672,235.492 362.338,236.158 361.5,236.5C 361.5,235.833 361.5,235.167 361.5,234.5 Z"/></g>
<g><path style="opacity:0.01" fill="#000000" d="M 360.5,236.5 C 360.833,236.5 361.167,236.5 361.5,236.5C 361.672,237.492 361.338,238.158 360.5,238.5C 360.5,237.833 360.5,237.167 360.5,236.5 Z"/></g>
<g><path style="opacity:0.012" fill="#000000" d="M 359.5,238.5 C 359.833,238.5 360.167,238.5 360.5,238.5C 360.315,239.17 359.981,239.17 359.5,238.5 Z"/></g>
<g><path style="opacity:0.01" fill="#000000" d="M 358.5,239.5 C 358.833,239.5 359.167,239.5 359.5,239.5C 359.672,240.492 359.338,241.158 358.5,241.5C 358.5,240.833 358.5,240.167 358.5,239.5 Z"/></g>
<g><path style="opacity:0.016" fill="#000000" d="M 357.5,241.5 C 357.833,241.5 358.167,241.5 358.5,241.5C 358.315,242.17 357.981,242.17 357.5,241.5 Z"/></g>
<g><path style="opacity:0.008" fill="#000000" d="M 356.5,242.5 C 356.833,242.5 357.167,242.5 357.5,242.5C 357.672,243.492 357.338,244.158 356.5,244.5C 356.5,243.833 356.5,243.167 356.5,242.5 Z"/></g>
<g><path style="opacity:0.009" fill="#000000" d="M 44.5,244.5 C 45.1667,244.5 45.5,244.833 45.5,245.5C 45.2533,247.975 44.5866,247.975 43.5,245.5C 43.6236,244.893 43.9569,244.56 44.5,244.5 Z"/></g>
<g><path style="opacity:0.009" fill="#000000" d="M 355.5,244.5 C 355.833,244.5 356.167,244.5 356.5,244.5C 356.573,246.027 355.906,247.027 354.5,247.5C 354.5,246.833 354.5,246.167 354.5,245.5C 355.167,245.5 355.5,245.167 355.5,244.5 Z"/></g>
<g><path style="opacity:0.01" fill="#000000" d="M 353.5,247.5 C 353.833,247.5 354.167,247.5 354.5,247.5C 354.672,248.492 354.338,249.158 353.5,249.5C 353.5,248.833 353.5,248.167 353.5,247.5 Z"/></g>
<g><path style="opacity:0.012" fill="#000000" d="M 352.5,249.5 C 352.833,249.5 353.167,249.5 353.5,249.5C 353.315,250.17 352.981,250.17 352.5,249.5 Z"/></g>
<g><path style="opacity:0.01" fill="#000000" d="M 351.5,250.5 C 351.833,250.5 352.167,250.5 352.5,250.5C 352.672,251.492 352.338,252.158 351.5,252.5C 351.5,251.833 351.5,251.167 351.5,250.5 Z"/></g>
<g><path style="opacity:0.012" fill="#000000" d="M 350.5,252.5 C 350.833,252.5 351.167,252.5 351.5,252.5C 351.315,253.17 350.981,253.17 350.5,252.5 Z"/></g>
<g><path style="opacity:0.008" fill="#000000" d="M 349.5,253.5 C 349.833,253.5 350.167,253.5 350.5,253.5C 350.672,254.492 350.338,255.158 349.5,255.5C 349.5,254.833 349.5,254.167 349.5,253.5 Z"/></g>
<g><path style="opacity:0.012" fill="#000000" d="M 348.5,255.5 C 348.833,255.5 349.167,255.5 349.5,255.5C 349.315,256.17 348.981,256.17 348.5,255.5 Z"/></g>
<g><path style="opacity:0.008" fill="#000000" d="M 344.5,260.5 C 345.833,261.167 345.833,261.833 344.5,262.5C 344.5,261.833 344.5,261.167 344.5,260.5 Z"/></g>
<g><path style="opacity:0.012" fill="#000000" d="M 343.5,262.5 C 343.833,262.5 344.167,262.5 344.5,262.5C 344.315,263.17 343.981,263.17 343.5,262.5 Z"/></g>
<g><path style="opacity:0.016" fill="#000000" d="M 342.5,263.5 C 342.833,263.5 343.167,263.5 343.5,263.5C 343.315,264.17 342.981,264.17 342.5,263.5 Z"/></g>
<g><path style="opacity:0.008" fill="#000000" d="M 341.5,264.5 C 341.833,264.5 342.167,264.5 342.5,264.5C 342.672,265.492 342.338,266.158 341.5,266.5C 341.5,265.833 341.5,265.167 341.5,264.5 Z"/></g>
<g><path style="opacity:0.012" fill="#000000" d="M 340.5,266.5 C 340.833,266.5 341.167,266.5 341.5,266.5C 341.315,267.17 340.981,267.17 340.5,266.5 Z"/></g>
<g><path style="opacity:0.016" fill="#000000" d="M 339.5,267.5 C 339.833,267.5 340.167,267.5 340.5,267.5C 340.315,268.17 339.981,268.17 339.5,267.5 Z"/></g>
<g><path style="opacity:0.016" fill="#000000" d="M 335.5,272.5 C 336.833,273.167 336.833,273.167 335.5,272.5 Z"/></g>
<g><path style="opacity:0.016" fill="#000000" d="M 331.5,277.5 C 332.833,278.167 332.833,278.167 331.5,277.5 Z"/></g>
<g><path style="opacity:0.006" fill="#000000" d="M 330.5,278.5 C 330.833,278.5 331.167,278.5 331.5,278.5C 331.672,279.492 331.338,280.158 330.5,280.5C 330.5,279.833 330.5,279.167 330.5,278.5 Z"/></g>
<g><path style="opacity:0.012" fill="#000000" d="M 329.5,280.5 C 329.833,280.5 330.167,280.5 330.5,280.5C 330.315,281.17 329.981,281.17 329.5,280.5 Z"/></g>
<g><path style="opacity:0.016" fill="#000000" d="M 328.5,281.5 C 328.833,281.5 329.167,281.5 329.5,281.5C 329.315,282.17 328.981,282.17 328.5,281.5 Z"/></g>
<g><path style="opacity:0.016" fill="#000000" d="M 327.5,282.5 C 327.833,282.5 328.167,282.5 328.5,282.5C 328.315,283.17 327.981,283.17 327.5,282.5 Z"/></g>
<g><path style="opacity:0.016" fill="#000000" d="M 323.5,287.5 C 324.833,288.167 324.833,288.167 323.5,287.5 Z"/></g>
<g><path style="opacity:0.007" fill="#000000" d="M 77.5,288.5 C 78.1667,288.5 78.5,288.833 78.5,289.5C 78.2533,291.975 77.5866,291.975 76.5,289.5C 76.6236,288.893 76.9569,288.56 77.5,288.5 Z"/></g>
<g><path style="opacity:0.007" fill="#000000" d="M 322.5,288.5 C 322.833,288.5 323.167,288.5 323.5,288.5C 323.573,290.027 322.906,291.027 321.5,291.5C 321.5,290.833 321.5,290.167 321.5,289.5C 322.167,289.5 322.5,289.167 322.5,288.5 Z"/></g>
<g><path style="opacity:0.012" fill="#000000" d="M 320.5,291.5 C 320.833,291.5 321.167,291.5 321.5,291.5C 321.315,292.17 320.981,292.17 320.5,291.5 Z"/></g>
<g><path style="opacity:0.016" fill="#000000" d="M 319.5,292.5 C 319.833,292.5 320.167,292.5 320.5,292.5C 320.315,293.17 319.981,293.17 319.5,292.5 Z"/></g>
<g><path style="opacity:0.016" fill="#000000" d="M 318.5,293.5 C 318.833,293.5 319.167,293.5 319.5,293.5C 319.315,294.17 318.981,294.17 318.5,293.5 Z"/></g>
<g><path style="opacity:0.016" fill="#000000" d="M 314.5,298.5 C 315.833,299.167 315.833,299.167 314.5,298.5 Z"/></g>
<g><path style="opacity:0.016" fill="#000000" d="M 313.5,299.5 C 313.833,299.5 314.167,299.5 314.5,299.5C 314.315,300.17 313.981,300.17 313.5,299.5 Z"/></g>
<g><path style="opacity:0.007" fill="#000000" d="M 87.5,300.5 C 88.1667,300.5 88.5,300.833 88.5,301.5C 88.2533,303.975 87.5866,303.975 86.5,301.5C 86.6236,300.893 86.9569,300.56 87.5,300.5 Z"/></g>
<g><path style="opacity:0.007" fill="#000000" d="M 312.5,300.5 C 312.833,300.5 313.167,300.5 313.5,300.5C 312.968,303.46 312.301,303.793 311.5,301.5C 312.167,301.5 312.5,301.167 312.5,300.5 Z"/></g>
<g><path style="opacity:0.016" fill="#000000" d="M 308.5,305.5 C 309.833,306.167 309.833,306.167 308.5,305.5 Z"/></g>
<g><path style="opacity:0.016" fill="#000000" d="M 307.5,306.5 C 307.833,306.5 308.167,306.5 308.5,306.5C 308.315,307.17 307.981,307.17 307.5,306.5 Z"/></g>
<g><path style="opacity:0.007" fill="#000000" d="M 93.5,307.5 C 94.1667,307.5 94.5,307.833 94.5,308.5C 95.1667,308.5 95.5,308.833 95.5,309.5C 94.7145,311.592 93.7145,311.259 92.5,308.5C 92.6236,307.893 92.9569,307.56 93.5,307.5 Z"/></g>
<g><path style="opacity:0.007" fill="#000000" d="M 306.5,307.5 C 306.833,307.5 307.167,307.5 307.5,307.5C 307.315,309.196 306.481,310.529 305,311.5C 304.536,310.906 304.369,310.239 304.5,309.5C 305.167,309.5 305.5,309.167 305.5,308.5C 306.167,308.5 306.5,308.167 306.5,307.5 Z"/></g>
<g><path style="opacity:0.016" fill="#000000" d="M 301.5,313.5 C 302.833,314.167 302.833,314.167 301.5,313.5 Z"/></g>
<g><path style="opacity:0.016" fill="#000000" d="M 300.5,314.5 C 300.833,314.5 301.167,314.5 301.5,314.5C 301.315,315.17 300.981,315.17 300.5,314.5 Z"/></g>
<g><path style="opacity:0.016" fill="#000000" d="M 299.5,315.5 C 299.833,315.5 300.167,315.5 300.5,315.5C 300.315,316.17 299.981,316.17 299.5,315.5 Z"/></g>
<g><path style="opacity:0.02" fill="#000000" d="M 298.5,316.5 C 298.833,316.5 299.167,316.5 299.5,316.5C 299.315,317.17 298.981,317.17 298.5,316.5 Z"/></g>
<g><path style="opacity:0.016" fill="#000000" d="M 297.5,317.5 C 297.833,317.5 298.167,317.5 298.5,317.5C 298.315,318.17 297.981,318.17 297.5,317.5 Z"/></g>
<g><path style="opacity:0.016" fill="#000000" d="M 296.5,318.5 C 296.833,318.5 297.167,318.5 297.5,318.5C 297.315,319.17 296.981,319.17 296.5,318.5 Z"/></g>
<g><path style="opacity:0.016" fill="#000000" d="M 295.5,319.5 C 295.833,319.5 296.167,319.5 296.5,319.5C 296.315,320.17 295.981,320.17 295.5,319.5 Z"/></g>
<g><path style="opacity:0.016" fill="#000000" d="M 294.5,320.5 C 294.833,320.5 295.167,320.5 295.5,320.5C 295.315,321.17 294.981,321.17 294.5,320.5 Z"/></g>
<g><path style="opacity:0.016" fill="#000000" d="M 293.5,321.5 C 293.833,321.5 294.167,321.5 294.5,321.5C 294.315,322.17 293.981,322.17 293.5,321.5 Z"/></g>
<g><path style="opacity:0.016" fill="#000000" d="M 292.5,322.5 C 292.833,322.5 293.167,322.5 293.5,322.5C 293.315,323.17 292.981,323.17 292.5,322.5 Z"/></g>
<g><path style="opacity:0.016" fill="#000000" d="M 291.5,323.5 C 291.833,323.5 292.167,323.5 292.5,323.5C 292.315,324.17 291.981,324.17 291.5,323.5 Z"/></g>
<g><path style="opacity:0.016" fill="#000000" d="M 290.5,324.5 C 290.833,324.5 291.167,324.5 291.5,324.5C 291.315,325.17 290.981,325.17 290.5,324.5 Z"/></g>
<g><path style="opacity:0.016" fill="#000000" d="M 289.5,325.5 C 289.833,325.5 290.167,325.5 290.5,325.5C 290.315,326.17 289.981,326.17 289.5,325.5 Z"/></g>
<g><path style="opacity:0.016" fill="#000000" d="M 288.5,326.5 C 288.833,326.5 289.167,326.5 289.5,326.5C 289.315,327.17 288.981,327.17 288.5,326.5 Z"/></g>
<g><path style="opacity:0.016" fill="#000000" d="M 287.5,327.5 C 287.833,327.5 288.167,327.5 288.5,327.5C 288.315,328.17 287.981,328.17 287.5,327.5 Z"/></g>
<g><path style="opacity:0.016" fill="#000000" d="M 286.5,328.5 C 286.833,328.5 287.167,328.5 287.5,328.5C 287.315,329.17 286.981,329.17 286.5,328.5 Z"/></g>
<g><path style="opacity:0.016" fill="#000000" d="M 285.5,329.5 C 285.833,329.5 286.167,329.5 286.5,329.5C 286.315,330.17 285.981,330.17 285.5,329.5 Z"/></g>
<g><path style="opacity:0.016" fill="#000000" d="M 284.5,330.5 C 284.833,330.5 285.167,330.5 285.5,330.5C 285.315,331.17 284.981,331.17 284.5,330.5 Z"/></g>
<g><path style="opacity:0.016" fill="#000000" d="M 283.5,331.5 C 283.833,331.5 284.167,331.5 284.5,331.5C 284.315,332.17 283.981,332.17 283.5,331.5 Z"/></g>
<g><path style="opacity:0.012" fill="#000000" d="M 282.5,332.5 C 282.833,332.5 283.167,332.5 283.5,332.5C 283.315,333.17 282.981,333.17 282.5,332.5 Z"/></g>
<g><path style="opacity:0.007" fill="#000000" d="M 123.5,337.5 C 124.167,337.5 124.5,337.833 124.5,338.5C 125.167,338.5 125.5,338.833 125.5,339.5C 123.93,340.559 122.597,340.059 121.5,338C 122.094,337.536 122.761,337.369 123.5,337.5 Z"/></g>
<g><path style="opacity:0.007" fill="#000000" d="M 276.5,337.5 C 277.239,337.369 277.906,337.536 278.5,338C 277.529,339.481 276.196,340.315 274.5,340.5C 274.5,340.167 274.5,339.833 274.5,339.5C 275.167,339.5 275.5,339.167 275.5,338.5C 276.167,338.5 276.5,338.167 276.5,337.5 Z"/></g>
<g><path style="opacity:0.016" fill="#000000" d="M 273.5,340.5 C 273.833,340.5 274.167,340.5 274.5,340.5C 274.315,341.17 273.981,341.17 273.5,340.5 Z"/></g>
<g><path style="opacity:0.016" fill="#000000" d="M 272.5,341.5 C 272.833,341.5 273.167,341.5 273.5,341.5C 273.315,342.17 272.981,342.17 272.5,341.5 Z"/></g>
<g><path style="opacity:0.02" fill="#000000" d="M 271.5,342.5 C 271.833,342.5 272.167,342.5 272.5,342.5C 272.315,343.17 271.981,343.17 271.5,342.5 Z"/></g>
<g><path style="opacity:0.016" fill="#000000" d="M 270.5,343.5 C 270.833,343.5 271.167,343.5 271.5,343.5C 271.315,344.17 270.981,344.17 270.5,343.5 Z"/></g>
<g><path style="opacity:0.016" fill="#000000" d="M 269.5,344.5 C 269.833,344.5 270.167,344.5 270.5,344.5C 270.315,345.17 269.981,345.17 269.5,344.5 Z"/></g>
<g><path style="opacity:0.007" fill="#000000" d="M 135.5,348.5 C 136.167,348.5 136.5,348.833 136.5,349.5C 135.503,350.713 134.503,350.546 133.5,349C 134.094,348.536 134.761,348.369 135.5,348.5 Z"/></g>
<g><path style="opacity:0.007" fill="#000000" d="M 264.5,348.5 C 266.793,349.301 266.46,349.968 263.5,350.5C 263.5,350.167 263.5,349.833 263.5,349.5C 264.167,349.5 264.5,349.167 264.5,348.5 Z"/></g>
<g><path style="opacity:0.016" fill="#000000" d="M 262.5,350.5 C 262.833,350.5 263.167,350.5 263.5,350.5C 263.315,351.17 262.981,351.17 262.5,350.5 Z"/></g>
<g><path style="opacity:0.016" fill="#000000" d="M 261.5,351.5 C 261.833,351.5 262.167,351.5 262.5,351.5C 262.315,352.17 261.981,352.17 261.5,351.5 Z"/></g>
<g><path style="opacity:0.016" fill="#000000" d="M 260.5,352.5 C 260.833,352.5 261.167,352.5 261.5,352.5C 261.315,353.17 260.981,353.17 260.5,352.5 Z"/></g>
<g><path style="opacity:0.016" fill="#000000" d="M 259.5,353.5 C 259.833,353.5 260.167,353.5 260.5,353.5C 260.315,354.17 259.981,354.17 259.5,353.5 Z"/></g>
<g><path style="opacity:0.008" fill="#000000" d="M 144.5,356.5 C 145.167,356.5 145.5,356.833 145.5,357.5C 144.503,358.713 143.503,358.546 142.5,357C 143.094,356.536 143.761,356.369 144.5,356.5 Z"/></g>
<g><path style="opacity:0.008" fill="#000000" d="M 255.5,356.5 C 257.793,357.301 257.46,357.968 254.5,358.5C 254.5,358.167 254.5,357.833 254.5,357.5C 255.167,357.5 255.5,357.167 255.5,356.5 Z"/></g>
<g><path style="opacity:0.016" fill="#000000" d="M 253.5,358.5 C 253.833,358.5 254.167,358.5 254.5,358.5C 254.315,359.17 253.981,359.17 253.5,358.5 Z"/></g>
<g><path style="opacity:0.016" fill="#000000" d="M 252.5,359.5 C 252.833,359.5 253.167,359.5 253.5,359.5C 253.315,360.17 252.981,360.17 252.5,359.5 Z"/></g>
<g><path style="opacity:0.016" fill="#000000" d="M 251.5,360.5 C 251.833,360.5 252.167,360.5 252.5,360.5C 252.315,361.17 251.981,361.17 251.5,360.5 Z"/></g>
<g><path style="opacity:0.016" fill="#000000" d="M 246.5,364.5 C 247.833,365.167 247.833,365.167 246.5,364.5 Z"/></g>
<g><path style="opacity:0.016" fill="#000000" d="M 245.5,365.5 C 245.833,365.5 246.167,365.5 246.5,365.5C 246.315,366.17 245.981,366.17 245.5,365.5 Z"/></g>
<g><path style="opacity:0.012" fill="#000000" d="M 244.5,366.5 C 244.833,366.5 245.167,366.5 245.5,366.5C 245.315,367.17 244.981,367.17 244.5,366.5 Z"/></g>
<g><path style="opacity:0.008" fill="#000000" d="M 242.5,368.5 C 242.5,368.167 242.5,367.833 242.5,367.5C 243.167,367.5 243.833,367.5 244.5,367.5C 244.158,368.338 243.492,368.672 242.5,368.5 Z"/></g>
<g><path style="opacity:0.016" fill="#000000" d="M 241.5,368.5 C 241.833,368.5 242.167,368.5 242.5,368.5C 242.315,369.17 241.981,369.17 241.5,368.5 Z"/></g>
<g><path style="opacity:0.016" fill="#000000" d="M 236.5,372.5 C 237.833,373.167 237.833,373.167 236.5,372.5 Z"/></g>
<g><path style="opacity:0.012" fill="#000000" d="M 235.5,373.5 C 235.833,373.5 236.167,373.5 236.5,373.5C 236.315,374.17 235.981,374.17 235.5,373.5 Z"/></g>
<g><path style="opacity:0.008" fill="#000000" d="M 233.5,375.5 C 233.5,375.167 233.5,374.833 233.5,374.5C 234.167,374.5 234.833,374.5 235.5,374.5C 235.158,375.338 234.492,375.672 233.5,375.5 Z"/></g>
<g><path style="opacity:0.016" fill="#000000" d="M 232.5,375.5 C 232.833,375.5 233.167,375.5 233.5,375.5C 233.315,376.17 232.981,376.17 232.5,375.5 Z"/></g>
<g><path style="opacity:0.016" fill="#000000" d="M 231.5,376.5 C 231.833,376.5 232.167,376.5 232.5,376.5C 232.315,377.17 231.981,377.17 231.5,376.5 Z"/></g>
<g><path style="opacity:0.008" fill="#000000" d="M 170.5,377.5 C 171.167,377.5 171.5,377.833 171.5,378.5C 170.503,379.713 169.503,379.546 168.5,378C 169.094,377.536 169.761,377.369 170.5,377.5 Z"/></g>
<g><path style="opacity:0.008" fill="#000000" d="M 229.5,377.5 C 230.167,377.5 230.833,377.5 231.5,377.5C 230.779,379.382 229.779,379.715 228.5,378.5C 229.167,378.5 229.5,378.167 229.5,377.5 Z"/></g>
<g><path style="opacity:0.016" fill="#000000" d="M 215.5,388.5 C 216.833,389.167 216.833,389.167 215.5,388.5 Z"/></g>
<g><path style="opacity:0.008" fill="#000000" d="M 186.5,389.5 C 187.167,389.5 187.5,389.833 187.5,390.5C 186.503,391.713 185.503,391.546 184.5,390C 185.094,389.536 185.761,389.369 186.5,389.5 Z"/></g>
<g><path style="opacity:0.008" fill="#000000" d="M 213.5,389.5 C 214.167,389.5 214.833,389.5 215.5,389.5C 215.027,390.906 214.027,391.573 212.5,391.5C 212.5,391.167 212.5,390.833 212.5,390.5C 213.167,390.5 213.5,390.167 213.5,389.5 Z"/></g>
<g><path style="opacity:0.016" fill="#000000" d="M 211.5,391.5 C 211.833,391.5 212.167,391.5 212.5,391.5C 212.315,392.17 211.981,392.17 211.5,391.5 Z"/></g>
<g><path style="opacity:0.008" fill="#000000" d="M 209.5,393.5 C 209.5,393.167 209.5,392.833 209.5,392.5C 210.167,392.5 210.833,392.5 211.5,392.5C 211.158,393.338 210.492,393.672 209.5,393.5 Z"/></g>
<g><path style="opacity:0.016" fill="#000000" d="M 208.5,393.5 C 208.833,393.5 209.167,393.5 209.5,393.5C 209.315,394.17 208.981,394.17 208.5,393.5 Z"/></g>
<g><path style="opacity:0.012" fill="#000000" d="M 207.5,394.5 C 207.833,394.5 208.167,394.5 208.5,394.5C 208.315,395.17 207.981,395.17 207.5,394.5 Z"/></g>
<g><path style="opacity:0.01" fill="#000000" d="M 205.5,396.5 C 205.5,396.167 205.5,395.833 205.5,395.5C 206.167,395.5 206.833,395.5 207.5,395.5C 207.158,396.338 206.492,396.672 205.5,396.5 Z"/></g>
<g><path style="opacity:0.016" fill="#000000" d="M 204.5,396.5 C 204.833,396.5 205.167,396.5 205.5,396.5C 205.315,397.17 204.981,397.17 204.5,396.5 Z"/></g>
<g><path style="opacity:0.012" fill="#000000" d="M 203.5,397.5 C 203.833,397.5 204.167,397.5 204.5,397.5C 204.315,398.17 203.981,398.17 203.5,397.5 Z"/></g>
<g><path style="opacity:0.006" fill="#000000" d="M 196.5,399.5 C 196.842,398.662 197.508,398.328 198.5,398.5C 198.5,398.833 198.5,399.167 198.5,399.5C 197.833,399.5 197.167,399.5 196.5,399.5 Z"/></g>
<g><path style="opacity:0.006" fill="#000000" d="M 201.5,399.5 C 201.5,399.167 201.5,398.833 201.5,398.5C 202.167,398.5 202.833,398.5 203.5,398.5C 203.5,398.833 203.5,399.167 203.5,399.5C 202.833,399.5 202.167,399.5 201.5,399.5 Z"/></g>
</svg>
