<?xml version="1.0" encoding="UTF-8"?>
<!DOCTYPE svg PUBLIC "-//W3C//DTD SVG 1.1//EN" "http://www.w3.org/Graphics/SVG/1.1/DTD/svg11.dtd">
<svg xmlns="http://www.w3.org/2000/svg" version="1.1" width="800px" height="800px" style="shape-rendering:geometricPrecision; text-rendering:geometricPrecision; image-rendering:optimizeQuality; fill-rule:evenodd; clip-rule:evenodd" xmlns:xlink="http://www.w3.org/1999/xlink">
<g><path style="opacity:0.992" fill="#b01639" d="M 799.5,324.5 C 799.5,327.5 799.5,330.5 799.5,333.5C 793.603,337.975 787.27,341.808 780.5,345C 750.491,345.286 720.491,345.953 690.5,347C 624.476,352.649 567.642,378.149 520,423.5C 510.899,433.932 502.565,444.932 495,456.5C 486.949,468.702 483.616,482.036 485,496.5C 486.903,502.734 490.07,508.234 494.5,513C 509.524,523.26 526.191,528.593 544.5,529C 554.479,529.911 564.479,530.411 574.5,530.5C 601.84,528.787 629.174,527.287 656.5,526C 659.362,526.93 661.695,528.597 663.5,531C 674.442,532.364 678.942,538.531 677,549.5C 672.284,555.868 666.117,560.368 658.5,563C 645.536,568.21 632.203,572.21 618.5,575C 573.63,584.553 528.297,590.553 482.5,593C 442.917,595.719 404.25,591.052 366.5,579C 348.765,571.97 332.432,562.637 317.5,551C 293.598,535.103 275.432,514.269 263,488.5C 261.456,481.916 261.123,475.249 262,468.5C 263.668,464.835 266.501,462.668 270.5,462C 284.162,462.777 297.828,463.444 311.5,464C 323.702,460.13 331.535,451.963 335,439.5C 338.361,423.801 337.028,408.468 331,393.5C 324.947,379.722 317.614,366.722 309,354.5C 285.909,324.075 259.409,296.908 229.5,273C 190.306,240.864 147.639,213.864 101.5,192C 85.081,183.693 67.7476,178.526 49.5,176.5C 24.5859,176.576 13.7525,188.909 17,213.5C 19.8313,222.831 23.4979,231.831 28,240.5C 38.1637,257.661 49.4971,273.994 62,289.5C 85.7048,314.369 109.205,339.369 132.5,364.5C 127.714,361.261 123.047,357.761 118.5,354C 87.0883,325.591 56.5883,296.091 27,265.5C 13.2967,249.759 4.13006,231.759 -0.5,211.5C -0.5,204.5 -0.5,197.5 -0.5,190.5C 4.49191,172.359 16.4919,162.193 35.5,160C 56.8863,157.943 77.5529,160.943 97.5,169C 133.478,182.989 168.144,199.656 201.5,219C 228.503,235.166 255.17,251.833 281.5,269C 290,274.25 299,278.417 308.5,281.5C 328.786,276.512 349.12,271.679 369.5,267C 403.461,261.286 437.128,262.619 470.5,271C 482.304,274.034 493.971,277.534 505.5,281.5C 603.15,258.183 697.15,268.35 787.5,312C 792.405,315.403 796.405,319.57 799.5,324.5 Z M 412.5,292.5 C 440.994,291.748 468.328,296.915 494.5,308C 509.818,319.44 508.485,328.773 490.5,336C 474.667,341.586 458.334,344.086 441.5,343.5C 424.948,343.327 410.115,338.327 397,328.5C 387.123,309.926 392.29,297.926 412.5,292.5 Z"/></g>
<g><path style="opacity:0.137" fill="#ae1639" d="M 132.5,364.5 C 133.833,365.167 133.833,365.167 132.5,364.5 Z"/></g>
<g><path style="opacity:0.987" fill="#b11739" d="M 164.5,381.5 C 195.924,380.961 217.424,395.294 229,424.5C 232.423,439.415 226.589,448.249 211.5,451C 197.059,453.114 184.059,449.781 172.5,441C 162.084,433.427 154.084,423.927 148.5,412.5C 143.09,396.313 148.424,385.979 164.5,381.5 Z"/></g>
</svg>
