<?xml version="1.0" encoding="UTF-8"?>
<!DOCTYPE svg PUBLIC "-//W3C//DTD SVG 1.1//EN" "http://www.w3.org/Graphics/SVG/1.1/DTD/svg11.dtd">
<svg xmlns="http://www.w3.org/2000/svg" version="1.1" width="800px" height="800px" style="shape-rendering:geometricPrecision; text-rendering:geometricPrecision; image-rendering:optimizeQuality; fill-rule:evenodd; clip-rule:evenodd" xmlns:xlink="http://www.w3.org/1999/xlink">
<g><path style="opacity:0.98" fill="#c88e28" d="M 432.5,7.5 C 438.909,7.1827 445.243,7.6827 451.5,9C 458.88,12.0427 466.047,15.5427 473,19.5C 485.286,11.1798 498.786,7.34644 513.5,8C 517.944,9.11064 521.944,11.1106 525.5,14C 536.669,24.8331 545.502,37.3331 552,51.5C 568.183,88.5571 580.517,126.89 589,166.5C 592.984,184.437 596.651,202.437 600,220.5C 612.598,216.286 624.098,210.119 634.5,202C 655.978,182.432 677.645,163.099 699.5,144C 709.272,136.899 719.938,131.566 731.5,128C 750.188,125.339 762.021,133.172 767,151.5C 773.16,175.886 772.827,200.22 766,224.5C 754.092,260.67 735.758,293.003 711,321.5C 677.218,361.459 636.384,391.793 588.5,412.5C 583.111,459.165 569.944,503.498 549,545.5C 519.6,605.813 486.6,663.813 450,719.5C 429.861,745.983 407.861,770.983 384,794.5C 380.422,757.278 372.756,720.944 361,685.5C 344.382,641.396 315.549,607.896 274.5,585C 247.037,570.401 218.371,558.734 188.5,550C 119.425,514.252 72.5919,459.418 48,385.5C 35.9192,348.82 33.2526,311.487 40,273.5C 50.1226,230.378 76.956,204.545 120.5,196C 151.706,189.462 182.706,190.296 213.5,198.5C 221.885,170.177 232.718,142.843 246,116.5C 248.128,113.37 250.628,110.537 253.5,108C 267.837,98.8293 282.504,90.1627 297.5,82C 326.62,68.9404 355.62,55.6071 384.5,42C 392.172,37.8327 399.505,33.1661 406.5,28C 413.653,18.9873 422.32,12.1539 432.5,7.5 Z"/></g>
<g><path style="opacity:1" fill="#010000" d="M 437.5,21.5 C 442.698,21.7308 447.698,22.8974 452.5,25C 459.536,28.5181 466.536,32.0181 473.5,35.5C 479.796,32.0167 486.13,28.5167 492.5,25C 499.691,21.9542 507.024,21.2875 514.5,23C 518.633,26.1311 522.466,29.6311 526,33.5C 532.095,42.6844 537.428,52.3511 542,62.5C 564.354,118.583 579.187,176.583 586.5,236.5C 601.144,235.588 614.811,231.422 627.5,224C 636.447,218.053 645.114,211.72 653.5,205C 670.5,189.333 687.5,173.667 704.5,158C 711.903,152.936 719.57,148.27 727.5,144C 734.211,140.823 740.878,140.823 747.5,144C 752.432,151.792 755.599,160.292 757,169.5C 759.049,200.308 752.715,229.308 738,256.5C 700.939,324.567 646.605,373.234 575,402.5C 570.525,451.403 557.192,497.737 535,541.5C 510.617,591.28 483.951,639.613 455,686.5C 437.693,714.319 417.527,739.986 394.5,763.5C 390.779,734.389 383.945,706.055 374,678.5C 355.581,630.748 323.748,594.915 278.5,571C 251.621,556.929 223.621,545.595 194.5,537C 118.842,497.261 72.0085,435.428 54,351.5C 49.8298,327.541 49.4965,303.541 53,279.5C 59.1322,245.379 78.6322,223.212 111.5,213C 148.212,202.13 184.545,203.297 220.5,216.5C 229.755,192.573 238.922,168.573 248,144.5C 251.344,135.642 255.844,127.475 261.5,120C 275.169,111.163 289.169,102.83 303.5,95C 335.105,80.8635 366.438,66.1969 397.5,51C 409.697,43.1416 421.03,34.1416 431.5,24C 433.723,23.4338 435.723,22.6005 437.5,21.5 Z"/></g>
<g><path style="opacity:1" fill="#6e1014" d="M 442.5,46.5 C 445.32,46.2475 447.986,46.7475 450.5,48C 456.987,53.3088 463.487,58.4755 470,63.5C 487.975,110.401 500.475,158.734 507.5,208.5C 422.521,200.496 341.187,214.163 263.5,249.5C 257.914,246.971 252.247,244.638 246.5,242.5C 250.614,205.824 261.948,171.49 280.5,139.5C 290.096,132.409 300.096,125.909 310.5,120C 347.08,102.037 383.413,83.7038 419.5,65C 427.644,59.3488 435.31,53.1822 442.5,46.5 Z"/></g>
<g><path style="opacity:1" fill="#c28927" d="M 496.5,44.5 C 506.41,50.2413 514.577,57.908 521,67.5C 537.371,95.2542 549.038,124.921 556,156.5C 560.86,176.664 564.527,196.998 567,217.5C 562.08,215.304 557.08,213.304 552,211.5C 546.05,175.662 538.05,140.328 528,105.5C 521.121,83.0694 510.621,62.7361 496.5,44.5 Z"/></g>
<g><path style="opacity:1" fill="#010000" d="M 424.5,71.5 C 421.341,92.3209 412.341,110.488 397.5,126C 385.102,135.248 371.102,140.582 355.5,142C 333.859,143.851 312.192,144.851 290.5,145C 329.944,127.946 367.944,108.279 404.5,86C 411.348,81.3035 418.015,76.4701 424.5,71.5 Z"/></g>
<g><path style="opacity:1" fill="#6d1014" d="M 725.5,171.5 C 727.857,171.337 730.19,171.503 732.5,172C 734.068,174.304 735.235,176.804 736,179.5C 739.336,197.755 737.336,215.422 730,232.5C 714.064,267.776 691.898,298.609 663.5,325C 647.284,340.764 629.617,354.597 610.5,366.5C 609.304,366.154 609.304,365.654 610.5,365C 660.209,335.453 689.376,291.953 698,234.5C 703.976,228.169 708.643,221.169 712,213.5C 671.692,250.921 625.525,279.087 573.5,298C 516.811,314.815 459.811,315.815 402.5,301C 384.183,296.339 366.183,290.672 348.5,284C 380.17,284.959 411.836,285.959 443.5,287C 421.036,284.315 398.702,280.982 376.5,277C 425.676,266.541 475.343,262.874 525.5,266C 542.524,267.558 559.191,270.725 575.5,275.5C 575.372,277.655 575.872,279.655 577,281.5C 578.455,274.576 579.288,267.576 579.5,260.5C 594.209,260.49 608.209,257.323 621.5,251C 640.793,241.69 658.46,230.023 674.5,216C 691.397,200.929 708.397,186.095 725.5,171.5 Z"/></g>
<g><path style="opacity:1" fill="#c68c28" d="M 506.5,219.5 C 501.695,220.487 496.695,220.821 491.5,220.5C 482.833,220.5 474.167,220.5 465.5,220.5C 454.007,219.341 442.341,219.174 430.5,220C 433.478,220.696 436.478,221.196 439.5,221.5C 462.831,224.834 486.165,228.334 509.5,232C 496.838,232.5 484.171,232.667 471.5,232.5C 458.34,231.34 445.006,231.173 431.5,232C 435.191,232.42 438.858,232.92 442.5,233.5C 463.225,236.21 483.891,239.21 504.5,242.5C 490.01,243.496 475.343,243.829 460.5,243.5C 451.827,243.334 443.16,243.5 434.5,244C 457.11,247.659 479.777,250.826 502.5,253.5C 500.735,254.461 498.735,254.795 496.5,254.5C 440.653,254.503 385.82,261.837 332,276.5C 313.767,270.312 295.933,263.145 278.5,255C 328.122,234.011 379.789,221.344 433.5,217C 457.913,215.87 482.246,216.704 506.5,219.5 Z"/></g>
<g><path style="opacity:1" fill="#835d1a" d="M 465.5,220.5 C 456.651,220.174 447.984,220.507 439.5,221.5C 436.478,221.196 433.478,220.696 430.5,220C 442.341,219.174 454.007,219.341 465.5,220.5 Z"/></g>
<g><path style="opacity:1" fill="#35250b" d="M 506.5,219.5 C 509.166,219.933 511.832,220.433 514.5,221C 506.655,221.822 498.989,221.656 491.5,220.5C 496.695,220.821 501.695,220.487 506.5,219.5 Z"/></g>
<g><path style="opacity:1" fill="#684915" d="M 471.5,232.5 C 461.652,232.173 451.986,232.506 442.5,233.5C 438.858,232.92 435.191,232.42 431.5,232C 445.006,231.173 458.34,231.34 471.5,232.5 Z"/></g>
<g><path style="opacity:1" fill="#6e1014" d="M 142.5,237.5 C 163.281,236.383 183.615,238.883 203.5,245C 237.29,256.485 270.623,269.152 303.5,283C 295.477,281.444 287.477,279.444 279.5,277C 249.13,266.321 218.463,256.654 187.5,248C 185.167,247.333 182.833,247.333 180.5,248C 206.701,257.908 230.034,272.241 250.5,291C 231.232,292.262 221.732,302.429 222,321.5C 220.729,324.433 219.062,327.099 217,329.5C 211.351,333.982 206.184,338.982 201.5,344.5C 189.142,349.358 180.642,358.025 176,370.5C 174.035,376.361 172.702,382.361 172,388.5C 171.394,406.539 171.727,424.539 173,442.5C 153.111,418.404 138.111,391.404 128,361.5C 123.055,347.001 118.722,332.334 115,317.5C 112.418,376.084 129.252,428.251 165.5,474C 165.167,474.167 164.833,474.333 164.5,474.5C 140.143,455.763 120.977,432.763 107,405.5C 92.9733,379.087 83.9733,351.087 80,321.5C 77.1365,300.662 81.1365,281.329 92,263.5C 99.9332,253.273 110.1,246.107 122.5,242C 129.201,240.03 135.868,238.53 142.5,237.5 Z"/></g>
<g><path style="opacity:1" fill="#7a5618" d="M 504.5,242.5 C 507.522,242.804 510.522,243.304 513.5,244C 495.662,244.829 477.995,244.662 460.5,243.5C 475.343,243.829 490.01,243.496 504.5,242.5 Z"/></g>
<g><path style="opacity:1" fill="#39280c" d="M 502.5,253.5 C 505.166,253.933 507.832,254.433 510.5,255C 505.648,255.815 500.981,255.648 496.5,254.5C 498.735,254.795 500.735,254.461 502.5,253.5 Z"/></g>
<g><path style="opacity:1" fill="#fafafa" d="M 354.5,318.5 C 352.821,318.892 351.154,319.392 349.5,320C 354.823,320.499 360.156,320.666 365.5,320.5C 372.237,321.138 377.904,323.971 382.5,329C 374.998,332.843 368.498,338.01 363,344.5C 366.308,350.152 370.808,354.986 376.5,359C 386.377,365.96 397.377,369.96 409.5,371C 431.373,372.425 452.039,368.092 471.5,358C 473.806,355.939 475.973,353.772 478,351.5C 481.268,356.036 483.435,361.036 484.5,366.5C 465.029,367.851 445.696,370.351 426.5,374C 383.921,382.783 341.254,390.783 298.5,398C 305.553,386.515 310.053,374.015 312,360.5C 317.376,369.068 324.209,375.401 332.5,379.5C 325.092,368.111 320.759,355.611 319.5,342C 322.458,322.037 333.291,308.204 352,300.5C 365.705,304.84 379.538,308.673 393.5,312C 398.252,314.748 402.419,318.248 406,322.5C 406.781,323.944 406.614,325.277 405.5,326.5C 389.42,317.259 372.42,314.592 354.5,318.5 Z"/></g>
<g><path style="opacity:1" fill="#5e5e5e" d="M 354.5,318.5 C 358.167,319.167 361.833,319.833 365.5,320.5C 360.156,320.666 354.823,320.499 349.5,320C 351.154,319.392 352.821,318.892 354.5,318.5 Z"/></g>
<g><path style="opacity:1" fill="#f8f8f8" d="M 240.5,337.5 C 246.369,337.066 251.202,339.066 255,343.5C 267.34,360.519 273.673,379.519 274,400.5C 270.629,401.907 267.129,402.407 263.5,402C 261.469,398.097 260.469,393.93 260.5,389.5C 253.419,390.256 250.919,387.256 253,380.5C 253.707,378.919 254.54,377.419 255.5,376C 252.543,371.92 249.71,367.753 247,363.5C 246.346,362.304 245.846,362.304 245.5,363.5C 247.134,367.569 248.467,371.735 249.5,376C 247.806,380.381 247.306,384.881 248,389.5C 249.507,392.426 251.841,394.426 255,395.5C 255.498,398.482 255.665,401.482 255.5,404.5C 248.1,405.447 240.767,406.78 233.5,408.5C 219.805,383.222 222.138,359.556 240.5,337.5 Z"/></g>
<g><path style="opacity:1" fill="#6e1114" d="M 498.5,380.5 C 505.167,380.5 511.833,380.5 518.5,380.5C 518.786,456.687 500.286,528.021 463,594.5C 449.999,617.177 435.999,639.177 421,660.5C 394.764,594.596 354.264,539.096 299.5,494C 277.395,476.561 254.729,459.895 231.5,444C 268.45,451.373 302.117,466.206 332.5,488.5C 332.833,488.333 333.167,488.167 333.5,488C 322.277,475.445 309.277,465.112 294.5,457C 274.931,446.366 254.264,438.699 232.5,434C 231.663,432.989 231.33,431.822 231.5,430.5C 263.827,427.667 296.16,424.834 328.5,422C 298.158,423.008 267.824,424.508 237.5,426.5C 236.167,426.333 234.833,426.167 233.5,426C 293.618,416.178 353.618,405.178 413.5,393C 441.856,387.938 470.19,383.771 498.5,380.5 Z"/></g>
<g><path style="opacity:1" fill="#c88c28" d="M 486.5,391.5 C 488.833,391.5 491.167,391.5 493.5,391.5C 492.351,450.408 479.851,506.742 456,560.5C 447.433,579.301 438.1,597.635 428,615.5C 442.879,576.325 453.879,535.992 461,494.5C 466.552,461.439 467.719,428.272 464.5,395C 472.019,394.108 479.352,392.941 486.5,391.5 Z"/></g>
</svg>
